<?xml version="1.0" encoding="UTF-8" standalone="no"?>
<svg
   viewBox="0 0 334.8916 333.98901"
   version="1.1"
   id="svg6"
   sodipodi:docname="LowRisk.svg"
   inkscape:version="1.3.2 (091e20e, 2023-11-25)"
   xmlns:inkscape="http://www.inkscape.org/namespaces/inkscape"
   xmlns:sodipodi="http://sodipodi.sourceforge.net/DTD/sodipodi-0.dtd"
   xmlns:xlink="http://www.w3.org/1999/xlink"
   xmlns="http://www.w3.org/2000/svg"
   xmlns:svg="http://www.w3.org/2000/svg">
  <defs
     id="defs6" />
  <sodipodi:namedview
     id="namedview6"
     pagecolor="#ffffff"
     bordercolor="#000000"
     borderopacity="0.25"
     inkscape:showpageshadow="2"
     inkscape:pageopacity="0.0"
     inkscape:pagecheckerboard="0"
     inkscape:deskcolor="#d1d1d1"
     inkscape:zoom="1.3334346"
     inkscape:cx="189.73559"
     inkscape:cy="212.60885"
     inkscape:window-width="1512"
     inkscape:window-height="916"
     inkscape:window-x="0"
     inkscape:window-y="38"
     inkscape:window-maximized="0"
     inkscape:current-layer="svg6" />
  <g
     transform="translate(-169.84 -290.15)"
     id="g6">
    <g
       id="a">
      <path
         id="d"
         d="m284.16 408.85 23.844 10.136 29.159-17.7v-22.987l-53.003 30.55z" />
      <use
         transform="matrix(-1 0 0 1 674.33 -.073306)"
         width="351.66501"
         height="990"
         xlink:href="#d"
         id="use1" />
    </g>
    <g
       id="b"
       transform="translate(0,-1.4877)">
      <path
         id="c"
         d="m306.46 497.35 14.019-8.0939 16.69 28.909v67.782l-75.808 39.674-76.254-44.025 70.207 18.32 58.461-43.397-7.3156-59.168z" />
      <use
         transform="matrix(-1 0 0 1 674.33 .0057556)"
         width="334.58145"
         height="332.21567"
         xlink:href="#c"
         id="use2" />
    </g>
    <use
       transform="matrix(-.5 -.86603 .86603 -.5 94.899 1003.9)"
       width="334.58145"
       height="332.21567"
       xlink:href="#b"
       id="use3" />
    <use
       transform="matrix(-.5 .86603 -.86603 -.5 916.85 420.05)"
       width="334.58145"
       height="332.21567"
       xlink:href="#b"
       id="use4" />
    <use
       transform="matrix(-.5 .86603 -.86603 -.5 915.34 419.18)"
       width="334.58145"
       height="332.21567"
       xlink:href="#a"
       id="use5" />
    <use
       transform="matrix(-.5 -.86603 .86603 -.5 95.986 1003.3)"
       width="334.58145"
       height="332.21567"
       xlink:href="#a"
       id="use6" />
  </g>
  <path
     style="fill:#ff0000;stroke-width:0.749943"
     d="m 55.734021,312.80552 c -19.667466,-11.37358 -35.667688,-20.77057 -35.55605,-20.8822 0.111639,-0.11164 14.347092,3.48443 31.634342,7.99128 17.28725,4.50684 32.000117,8.30511 32.695261,8.44061 0.971976,0.18945 31.055756,-21.52234 58.888416,-42.50041 0.81684,-0.61567 0.38827,-5.65094 -2.39365,-28.12286 -1.86375,-15.05511 -3.47282,-28.35041 -3.5757,-29.54511 -0.17033,-1.97786 0.34967,-2.49484 5.81248,-5.77876 3.29975,-1.98361 6.34354,-3.62155 6.76399,-3.63987 0.42045,-0.0183 4.38918,6.24515 8.81942,13.91881 l 8.05497,13.95211 -0.19507,33.78917 -0.19508,33.78918 -26.99795,14.15294 c -14.84887,7.78413 -31.72259,16.61926 -37.49715,19.63364 l -10.499201,5.48068 z"
     id="path6" />
  <path
     style="fill:#ff0000;stroke-width:0.749943"
     d="m 112.31585,247.1649 c -13.708052,-7.92485 -25.126269,-14.61136 -25.373819,-14.85891 -0.373674,-0.37368 5.43455,-4.00307 16.254239,-10.15682 1.88546,-1.07236 2.43763,-0.84494 15.74881,6.48633 7.58716,4.17872 14.22803,7.87745 14.75749,8.21941 0.60018,0.38765 1.5172,5.09447 2.43541,12.5004 0.81002,6.53326 1.38925,11.9551 1.28718,12.04853 -0.10207,0.0934 -11.40126,-6.31409 -25.10931,-14.23894 z"
     id="path7" />
  <path
     style="fill:#ff0000;stroke-width:0.749943"
     d="m 85.118533,201.26788 c 0,-23.65875 0.191048,-29.56668 0.937429,-28.98887 0.515586,0.39914 5.07149,3.8256 10.124231,7.61436 l 9.186807,6.88864 v 5.48224 c 0,3.01523 -0.22095,10.58684 -0.49099,16.8258 l -0.49099,11.34356 -9.150474,5.27442 c -5.032761,2.90093 -9.367721,5.27442 -9.633244,5.27442 -0.265523,0 -0.482769,-13.37156 -0.482769,-29.71457 z"
     id="path8" />
  <path
     style="fill:#ff0000;stroke-width:0.749943"
     d="M 102.36722,146.56914 C 86.487179,137.33236 73.30072,129.68277 73.063981,129.57008 72.656441,129.37607 75.942245,44.923572 76.374138,44.49168 77.045966,43.819851 146.86326,3.749133 147.04512,3.9309963 147.16754,4.0534187 136.7903,14.870025 123.98457,27.967898 l -23.28313,23.814316 3.85965,33.91685 c 2.12281,18.654266 4.10061,35.042366 4.39512,36.417986 0.5332,2.49051 0.65015,2.54968 27.53342,13.92897 l 26.99795,11.42782 0.21286,8.00687 0.21285,8.00687 -16.33663,-0.0621 -16.33663,-0.0621 z"
     id="path9" />
  <path
     style="fill:#ff0000;stroke-width:0.749943"
     d="m 144.22711,162.92647 -13.26092,-0.22303 -28.73589,-16.70299 -28.735884,-16.70301 0.200325,-8.59047 c 0.386167,-16.55994 2.429576,-68.623128 2.839075,-72.335645 0.485264,-4.399396 -4.279801,-1.201746 37.689524,-25.291975 15.80141,-9.069947 28.87024,-16.3504075 29.04185,-16.1788009 0.17161,0.1716065 -9.44936,10.3065699 -21.37993,22.5221399 -20.8989,21.398138 -21.67858,22.301305 -21.32643,24.704069 0.20104,1.371667 1.85851,15.487093 3.68327,31.367609 1.82477,15.880523 3.54813,30.833823 3.8297,33.229573 0.43527,3.7034 0.8608,4.61704 2.84078,6.09929 1.28085,0.95887 13.29673,6.39263 26.70197,12.07502 13.40523,5.6824 24.59221,10.5305 24.85995,10.77356 0.26775,0.24307 0.61715,3.90105 0.77645,8.12885 l 0.28964,7.68692 -3.02627,-0.16904 c -1.66446,-0.093 -8.9937,-0.2694 -16.28721,-0.39207 z"
     id="path10" />
  <path
     style="fill:#ff0000;stroke-width:0.749943"
     d="m 170.77329,155.1194 0.21372,-7.61823 27.41763,-11.57887 27.41763,-11.57887 4.19696,-36.471833 4.19696,-36.471832 -23.23688,-23.515891 C 198.19902,14.950134 187.88844,4.2219682 188.0669,4.0435065 188.24536,3.8650448 204.231,12.868035 223.59055,24.050152 l 35.19918,20.33112 1.72785,42.359283 c 0.95031,23.297615 1.6119,42.464715 1.47019,42.593565 -0.14171,0.12887 -13.19422,7.69737 -29.00557,16.8189 l -28.74792,16.58462 h -16.83736 -16.83735 z"
     id="path11" />
  <path
     style="fill:#ff0000;stroke-width:0.749943"
     d="m 325.24141,226.69988 c -5.06341,-18.44169 -9.27578,-33.58616 -9.3608,-33.65437 -0.085,-0.0682 -15.16622,-6.61014 -33.51376,-14.53762 -24.65974,-10.65481 -33.65599,-14.22485 -34.49738,-13.68981 -0.62602,0.39808 -11.09371,8.23284 -23.26153,17.41058 -12.16783,9.17773 -22.51702,16.84021 -22.9982,17.02772 -0.6377,0.2485 -10.0388,-4.54026 -13.57728,-6.91603 -0.11178,-0.0751 3.4745,-6.51326 7.96952,-14.30713 l 8.17277,-14.17067 28.77768,-16.6886 c 16.07535,-9.32233 29.34302,-16.55668 30.05846,-16.38974 0.70443,0.16437 17.15631,10.36968 36.55972,22.67846 l 35.27895,22.3796 v 42.19398 c 0,23.20669 -0.0904,42.19398 -0.20096,42.19398 -0.11054,0 -4.34377,-15.08866 -9.40719,-33.53035 z"
     id="path12" />
  <path
     style="fill:#ff0000;stroke-width:0.749943"
     d="m 239.1554,225.4806 -9.07574,-5.18165 -0.48299,-9.46962 c -0.26565,-5.2083 -0.46991,-12.84437 -0.45391,-16.96906 l 0.0291,-7.49943 9.40789,-6.99624 c 5.17434,-3.84794 9.55106,-6.85307 9.72605,-6.67808 0.175,0.17499 0.22979,13.29112 0.12177,29.14695 l -0.1964,28.82878 z"
     id="path13" />
  <path
     style="fill:#ff0000;stroke-width:0.749943"
     d="m 205.48439,313.8157 -37.49715,-19.70622 -0.19528,-33.53564 -0.19527,-33.53564 8.06967,-14.12632 c 4.43833,-7.76947 8.3775,-14.13771 8.75371,-14.15164 0.49656,-0.0184 10.40993,5.40765 13.02278,7.12797 0.11431,0.0753 -1.45961,13.42786 -3.4976,29.67243 -2.03798,16.24458 -3.45654,29.70627 -3.15233,29.91488 0.3042,0.2086 13.49741,9.99576 29.31823,21.74925 15.82083,11.75348 29.29581,21.28006 29.94442,21.17018 0.6486,-0.10989 15.33543,-3.89369 32.6374,-8.40846 17.30198,-4.51478 31.56033,-8.1065 31.68522,-7.9816 0.12489,0.12489 -15.21331,9.11787 -34.0849,19.98437 -18.87159,10.86651 -34.98693,20.15675 -35.81186,20.64497 -1.30995,0.77527 -6.24835,-1.60783 -38.99704,-18.81853 z"
     id="path14" />
  <path
     style="fill:#ff0000;stroke-width:0.749943"
     d="m 196.86089,261.62888 c 4.6e-4,-0.15055 0.67503,-5.50459 1.49904,-11.89785 0.82401,-6.39327 1.49858,-11.83718 1.49904,-12.09759 4.7e-4,-0.26041 6.61474,-4.09378 14.69838,-8.5186 10.98032,-6.0104 15.0273,-7.8822 16.0014,-7.40093 4.23012,2.08996 17.27429,9.71873 17.28484,10.10889 0.007,0.25596 -10.70223,6.64333 -23.79811,14.19415 -13.09588,7.55082 -24.57001,14.21407 -25.49806,14.80721 -0.92806,0.59315 -1.687,0.95528 -1.68653,0.80472 z"
     id="path15" />
  <path
     style="fill:#ff0000;stroke-width:0.749943"
     d="m 182.04867,119.48456 -14.4364,-8.72674 v -10.7573 c 0,-5.916514 0.18411,-10.7573 0.40913,-10.7573 0.71837,0 50.57952,28.85612 50.58333,29.27407 0.003,0.31023 -17.67071,8.10617 -21.36971,9.42635 -0.41247,0.14721 -7.24633,-3.65937 -15.18635,-8.45908 z"
     id="path16" />
  <path
     style="fill:#ff0000;stroke-width:0.749943"
     d="m 126.59203,123.53238 c -5.85614,-2.50875 -10.49355,-4.81051 -10.30534,-5.11503 0.28863,-0.46702 48.19153,-28.314187 49.97054,-29.049139 0.3328,-0.13749 0.60509,4.642039 0.60509,10.621176 v 10.871163 l -14.26917,8.68985 c -7.84805,4.77942 -14.51317,8.65689 -14.81138,8.61659 -0.29821,-0.0403 -5.33359,-2.12587 -11.18974,-4.63461 z"
     id="path17" />
  <path
     style="fill:#ff6600;stroke-width:0.749943"
     d="M 0.42332581,217.80833 0.37497151,175.7614 35.772159,153.34001 c 19.468452,-12.33176 35.934944,-22.42138 36.592203,-22.42138 0.657259,0 14.037984,7.41238 29.734938,16.47196 l 28.53992,16.47196 7.98732,13.88881 c 4.39302,7.63884 7.98732,14.08967 7.98732,14.33518 0,0.60084 -11.74658,7.3983 -12.78488,7.3983 -0.45115,0 -11.1135,-7.78177 -23.69412,-17.29282 -12.580629,-9.51106 -23.271554,-17.42479 -23.757615,-17.58607 -0.486053,-0.16128 -15.868873,6.21071 -34.184035,14.15997 l -33.300296,14.45321 -9.2106171,33.31806 -9.21061671,33.31807 z"
     id="path18" />
  <path
     style="fill:#ff6600;stroke-width:0.749943"
     d="M 62.205895,316.02832 C 46.141274,306.70781 30.874532,297.85369 28.279802,296.3525 c -2.59473,-1.50119 -4.450839,-2.8124 -4.124687,-2.91379 0.326153,-0.10139 14.091979,3.33478 30.590726,7.63594 l 29.997721,7.8203 5.624573,-3.83382 c 7.401892,-5.04528 38.296205,-27.524 46.871435,-34.10369 l 6.74949,-5.17881 -0.24282,-5.21152 c -0.13356,-2.86633 -1.55458,-15.99875 -3.15783,-29.18315 -3.34707,-27.52468 -3.74223,-24.88824 4.41403,-29.44948 l 4.8019,-2.68537 1.36347,1.80524 c 0.74991,0.99288 4.50359,7.20483 8.34151,13.80433 l 6.97803,11.99909 -0.37497,33.6501 -0.37497,33.6501 -37.0471,19.40837 c -20.3759,10.6746 -37.098596,19.40836 -37.16155,19.40836 -0.06296,0 -13.258244,-7.62587 -29.322865,-16.94638 z"
     id="path19" />
  <path
     style="fill:#ff6600;stroke-width:0.749943"
     d="m 132.73992,258.41927 c -1.64988,-0.96384 -11.94285,-6.91464 -22.87327,-13.224 -10.930416,-6.30936 -20.45927,-11.86366 -21.175226,-12.34288 -1.12656,-0.75405 -0.2395,-1.50406 6.591644,-5.57327 4.34136,-2.58608 8.470622,-4.84773 9.176142,-5.02589 0.9266,-0.23398 27.71093,13.53404 29.17252,14.99563 0.9604,0.96039 3.5943,22.99122 2.74405,22.95211 -0.34985,-0.0161 -1.98599,-0.81786 -3.63586,-1.7817 z"
     id="path20" />
  <path
     style="fill:#ff6600;stroke-width:0.749943"
     d="m 85.712649,216.94741 c -0.167082,-14.30124 0.203107,-43.17525 0.558761,-43.58236 0.118566,-0.13572 4.428044,2.90155 9.576619,6.74949 l 9.361041,6.99624 -0.32162,11.24915 c -0.17689,6.18703 -0.50571,13.67545 -0.73072,16.64094 l -0.4091,5.3918 -7.252207,4.07433 c -3.988711,2.24088 -8.01152,4.46672 -8.939575,4.9463 l -1.687372,0.87198 z"
     id="path21" />
  <path
     style="fill:#ff6600;stroke-width:0.749943"
     d="m 126.92786,123.22905 c -5.25898,-2.28968 -9.56041,-4.3768 -9.55873,-4.63804 0.002,-0.37466 24.42908,-14.80529 45.47115,-26.863132 l 3.10241,-1.777791 0.54021,9.712328 c 0.29712,5.341775 0.3231,10.063625 0.0577,10.492995 -0.73037,1.18175 -27.88,17.34217 -29.0403,17.2858 -0.55589,-0.027 -5.31351,-1.92248 -10.57248,-4.21216 z"
     id="path22" />
  <path
     style="fill:#ff6600;stroke-width:0.749943"
     d="M 144.19122,162.92632 130.8944,162.70315 102.19441,146.08219 C 86.409413,136.94065 73.427132,129.42857 73.344895,129.38867 73.200922,129.3188 73.690747,115.24071 75.367927,71.244587 76.440218,43.116023 76.032512,45.15045 81.210472,42.090633 98.41974,31.921146 142.98994,6.6253013 143.24662,6.8819812 c 0.17445,0.1744464 -9.28953,10.2034738 -21.03105,22.2867298 -19.59949,20.169912 -21.34823,22.181638 -21.34823,24.558628 0,2.37604 3.66113,35.547926 6.40294,58.014171 0.62923,5.15586 1.45855,10.12255 1.84294,11.0371 0.89655,2.13308 4.63937,3.96199 31.12613,15.20958 11.96159,5.07949 21.96305,9.43571 22.22548,9.6805 0.26242,0.24478 0.63291,3.90417 0.82331,8.13197 l 0.34618,7.68692 -3.07314,-0.16904 c -1.69023,-0.093 -9.05672,-0.26947 -16.36996,-0.39222 z"
     id="path23" />
  <path
     style="fill:#ff6600;stroke-width:0.749943"
     d=""
     id="path24" />
  <path
     style="fill:#ff6600;stroke-width:0.749943"
     d="m 171.21741,155.42569 c 0.16485,-4.02157 0.51792,-7.51455 0.7846,-7.76218 0.26669,-0.24762 12.39899,-5.45567 26.96066,-11.57343 14.56168,-6.11775 26.66306,-11.42622 26.89196,-11.79659 0.22891,-0.37037 2.29393,-17.0172 4.58894,-36.992952 L 234.61633,50.980981 213.00819,29.220415 C 201.12371,17.252103 191.59635,7.2635453 191.83627,7.0236188 c 0.23993,-0.2399266 5.93997,2.7061191 12.66675,6.5467682 16.8131,9.599424 53.42407,30.747938 53.69105,31.014907 0.34271,0.342716 3.14513,69.703006 3.13756,77.655416 l -0.007,7.12446 -28.91088,16.68623 -28.91089,16.68624 h -16.2927 -16.2927 z"
     id="path25" />
  <path
     style="fill:#ff6600;stroke-width:0.749943"
     d="m 182.34418,119.1258 c -7.76458,-4.60048 -14.29568,-8.82907 -14.51356,-9.39687 -0.21789,-0.56779 -0.15316,-5.24535 0.14384,-10.394571 l 0.53999,-9.362218 5.36097,2.960208 c 13.25069,7.316741 42.83999,24.754321 43.04415,25.366801 0.19486,0.5846 -18.4622,9.19116 -19.92435,9.19116 -0.2935,0 -6.88647,-3.76403 -14.65104,-8.36451 z"
     id="path26" />
  <path
     style="fill:#ff6600;stroke-width:0.749943"
     d="m 325.16137,224.86564 c -4.70981,-17.05296 -8.92824,-31.40094 -9.37429,-31.88442 -0.85877,-0.93081 -55.33439,-24.41639 -63.15165,-27.22599 l -4.59503,-1.6515 -22.69446,17.00408 c -12.48195,9.35224 -23.14021,17.17513 -23.68503,17.3842 -1.53622,0.5895 -13.16411,-5.8781 -12.70747,-7.06808 0.69092,-1.8005 14.78041,-26.03842 15.66688,-26.95148 1.73602,-1.78808 56.87744,-33.23242 58.27704,-33.23242 0.53378,0 22.26599,13.5463 50.76631,31.64408 l 21.18589,13.4531 -0.0985,22.63548 c -0.0542,12.44951 -0.30726,30.34461 -0.56246,39.76689 l -0.464,17.13143 z"
     id="path27" />
  <path
     style="fill:#ff6600;stroke-width:0.749943"
     d="m 238.75605,224.82261 -7.97521,-4.56199 -0.46165,-3.3681 c -0.25391,-1.85246 -0.46165,-9.50166 -0.46165,-16.99823 v -13.63012 l 6.562,-4.76465 c 3.6091,-2.62056 7.65879,-5.59176 8.99931,-6.60267 l 2.43732,-1.83803 v 28.21187 c 0,15.51653 -0.25311,28.18984 -0.56246,28.1629 -0.30935,-0.0269 -4.1513,-2.10188 -8.53766,-4.61098 z"
     id="path28" />
  <path
     style="fill:#ff6600;stroke-width:0.749943"
     d=""
     id="path29" />
  <path
     style="fill:#ff6600;stroke-width:0.749943"
     d="m 232.48234,327.25008 c -5.36209,-2.7097 -21.98271,-11.33242 -36.9347,-19.16159 l -27.18543,-14.23486 -0.007,-29.37325 c -0.004,-16.15528 -0.19136,-31.06061 -0.41729,-33.12296 -0.40223,-3.67184 -0.25803,-4.00856 6.9435,-16.21378 4.04484,-6.85523 7.88312,-13.23937 8.52952,-14.18698 l 1.17526,-1.72291 6.13668,3.26976 c 4.39696,2.3428 6.13668,3.67558 6.13668,4.70124 0,1.18905 -1.33085,12.74595 -6.34459,55.09514 l -0.3782,3.19457 11.79825,8.7521 c 20.57056,15.2595 36.36551,26.79043 42.17308,30.78798 l 5.62671,3.87304 30.32579,-7.8222 c 16.67918,-4.30221 30.44804,-7.69995 30.59747,-7.55053 0.2269,0.2269 -10.84352,6.68977 -63.24324,36.92121 -1.68611,0.97279 -3.54222,1.75791 -4.12469,1.74472 -0.58246,-0.0132 -5.44619,-2.241 -10.80828,-4.9507 z"
     id="path30" />
  <path
     style="fill:#ffff00;stroke-width:0.749943"
     d="m 197.67315,258.87876 c 0.0347,-1.1128 0.62531,-6.35592 1.3124,-11.65138 l 1.24924,-9.62811 9.37429,-5.27511 c 5.15585,-2.90131 11.82609,-6.45484 14.82274,-7.89673 l 5.44845,-2.62161 8.05052,4.51307 c 4.42779,2.48219 8.05052,4.92909 8.05052,5.43755 0,0.86809 -8.42375,6.00719 -36.55972,22.30408 -11.5797,6.70718 -11.81036,6.80178 -11.74844,4.81824 z"
     id="path31" />
  <path
     style="fill:#ffff00;stroke-width:0.749943"
     d="m 211.8589,316.06669 c -16.29251,-8.46541 -32.75413,-16.97956 -36.58138,-18.92035 l -6.95863,-3.52869 0.20915,-33.75492 0.20914,-33.75491 6.74949,-11.33313 c 3.71222,-6.23322 7.30863,-12.13902 7.99204,-13.124 l 1.24255,-1.79087 4.86502,2.47795 c 7.79703,3.97134 7.44828,1.56482 4.20543,29.01965 -1.55901,13.199 -3.06161,26.3605 -3.33911,29.24778 l -0.50455,5.2496 19.35176,14.24892 c 28.35482,20.87798 39.56431,28.84285 40.61477,28.85871 0.51343,0.008 13.47793,-3.20133 28.81002,-7.13129 15.33208,-3.92997 28.14751,-7.05161 28.47873,-6.93698 1.10654,0.38295 -62.2239,36.58078 -63.98581,36.57242 -0.95473,-0.005 -15.0661,-6.93449 -31.35862,-15.39989 z"
     id="path32" />
  <path
     style="fill:#ffff00;stroke-width:0.749943"
     d="m 238.64639,224.39216 c -4.78287,-2.74252 -7.45388,-4.74132 -7.6768,-5.74477 -0.18803,-0.84639 -0.43079,-8.42116 -0.53947,-16.83284 l -0.19761,-15.29395 8.62434,-6.34684 8.62435,-6.34685 0.25428,4.01714 c 0.38878,6.14171 -0.73679,50.89779 -1.27809,50.82129 -0.26184,-0.037 -3.77679,-1.95994 -7.811,-4.27318 z"
     id="path33" />
  <path
     style="fill:#ffff00;stroke-width:0.749943"
     d="m 326.2711,227.75613 c -7.39238,-26.62762 -9.6605,-34.06119 -10.71418,-35.11488 -0.89667,-0.89666 -40.40416,-18.13057 -55.70166,-24.29811 l -11.62412,-4.68653 -3.37474,2.51102 c -29.94167,22.27841 -42.37621,31.30702 -43.53427,31.60986 -1.35522,0.3544 -10.66492,-4.30085 -11.58806,-5.79452 -0.45944,-0.7434 12.33782,-23.4361 14.99139,-26.58344 0.82988,-0.98429 6.57099,-4.73771 12.75802,-8.34091 20.01926,-11.65883 44.1691,-25.06865 45.14632,-25.06865 1.1634,0 10.74748,5.85657 45.2714,27.66412 l 26.58045,16.78995 -0.2596,32.33132 c -0.14278,17.78223 -0.48184,34.76043 -0.75347,37.72934 l -0.49388,5.39803 z"
     id="path34" />
  <path
     style="fill:#ffff00;stroke-width:0.749943"
     d="m 171.36198,158.71762 c 0,-2.21101 0.21195,-5.56634 0.47099,-7.45629 l 0.471,-3.43627 25.65588,-10.93355 c 14.11073,-6.01346 26.25799,-11.37383 26.99391,-11.91194 1.4846,-1.08558 1.89399,-3.89262 7.12585,-48.860353 L 235.04623,50.621154 214.68786,30.200575 C 203.49076,18.969256 194.55694,9.5525541 194.83492,9.2745701 c 0.27799,-0.2779841 10.54975,5.2548379 22.82614,12.2951599 42.17338,24.185787 39.90053,22.759347 40.29153,25.286986 0.36074,2.332123 1.41506,27.015724 2.64298,61.877444 0.38486,10.92625 0.46009,20.09621 0.16719,20.37768 -0.29289,0.28147 -13.44623,7.96242 -29.22965,17.06878 l -28.69713,16.55702 h -15.737 -15.737 z"
     id="path35" />
  <path
     style="fill:#ffff00;stroke-width:0.749943"
     d="m 191.23547,123.99963 c -2.47481,-1.48358 -8.63372,-5.21121 -13.68646,-8.28362 l -9.1868,-5.58621 v -8.5071 c 0,-4.6789 0.20368,-9.03788 0.45263,-9.686619 0.38057,-0.991767 1.24606,-0.738796 5.43708,1.589182 6.65933,3.69904 34.28522,19.796127 38.84603,22.634857 l 3.62671,2.25732 -8.24494,3.8621 c -10.65004,4.9887 -11.62887,5.08634 -17.24425,1.72009 z"
     id="path36" />
  <path
     style="fill:#ffff00;stroke-width:0.749943"
     d="m 128.88595,161.05026 c -1.69445,-0.92805 -14.76136,-8.43685 -29.037578,-16.68623 l -25.95676,-14.99886 -0.01111,-5.45192 c -0.01405,-6.89287 2.038902,-61.208642 2.665533,-70.523132 0.383082,-5.694273 0.766982,-7.302606 2.083735,-8.729741 2.124542,-2.302638 60.99705,-36.1485982 61.68359,-35.4620583 0.16448,0.164479 -5.35431,6.1771603 -12.26397,13.3615143 -28.210024,29.331498 -27.18205,28.11073 -27.18205,32.280016 0,3.773111 3.39542,35.24357 6.05376,56.109161 1.02246,8.02545 1.85228,11.99788 2.70257,12.93743 1.56986,1.73469 5.02562,3.3628 30.87212,14.54477 11.69016,5.05753 21.39827,9.33893 21.57357,9.51423 0.17531,0.1753 0.53265,3.57526 0.7941,7.55546 l 0.47537,7.23674 H 147.6528 c -14.85419,0 -15.8494,-0.0895 -18.76685,-1.68738 z"
     id="path37" />
  <path
     style="fill:#ffff00;stroke-width:0.749943"
     d="M 1.0200706,220.67074 C 0.89727968,201.59406 0.78626839,183.746 0.77337874,181.00838 l -0.0234357,-4.97748 6.74948726,-4.26808 c 3.7122177,-2.34744 15.0176087,-9.49749 25.1230917,-15.88901 10.105482,-6.39152 23.202755,-14.55854 29.105051,-18.14893 l 10.731448,-6.52799 10.641926,5.94289 c 5.853065,3.2686 18.859323,10.67184 28.902793,16.45167 l 18.26088,10.50877 6.0034,10.38037 c 3.30187,5.7092 6.84092,12.02977 7.86454,14.04572 2.10336,4.14238 2.52436,3.48446 -4.95123,7.7374 -4.63563,2.63724 -4.88211,2.69247 -6.88536,1.54276 -1.14269,-0.65581 -11.90252,-8.51727 -23.91072,-17.4699 l -21.833111,-16.27751 -3.529089,1.33082 c -2.954513,1.11414 -18.905872,7.91093 -58.357128,24.86566 l -6.081742,2.61372 -8.397138,30.49322 c -4.6184253,16.77128 -8.5201172,30.83071 -8.6704263,31.24318 -0.150309,0.41247 -0.3737544,-14.85825 -0.4965451,-33.93492 z"
     id="path38" />
  <path
     style="fill:#ffff00;stroke-width:0.749943"
     d=""
     id="path39" />
  <path
     style="fill:#ffff00;stroke-width:0.749943"
     d="m 85.966497,207.17176 c 0.05391,-12.27094 0.307016,-24.73326 0.562457,-27.69403 l 0.464437,-5.38323 8.913364,6.50814 8.913365,6.50814 -0.4883,15.53072 c -0.26856,8.5419 -0.68327,16.03881 -0.92157,16.65981 -0.36898,0.96155 -15.862303,10.18126 -17.109164,10.18126 -0.237935,0 -0.388501,-10.03987 -0.334589,-22.31081 z"
     id="path40" />
  <path
     style="fill:#ffff00;stroke-width:0.749943"
     d="m 112.18896,246.13857 c -12.540433,-7.30469 -22.826899,-13.61874 -22.858815,-14.0312 -0.06792,-0.87781 13.660515,-9.3083 15.221885,-9.34761 1.20927,-0.0304 26.97052,13.12469 28.32962,14.46669 0.49042,0.48425 1.41848,4.68865 2.06234,9.3431 1.29087,9.33155 1.46061,12.92632 0.60821,12.88051 -0.30935,-0.0166 -10.82281,-6.00679 -23.36324,-13.31149 z"
     id="path41" />
  <path
     style="fill:#ffff00;stroke-width:0.749943"
     d="M 58.748357,313.63842 C 41.151245,303.44371 27.072501,294.98648 27.462259,294.84459 c 0.389758,-0.14189 13.3956,3.01404 28.901871,7.01319 23.327873,6.01638 28.468125,7.1231 29.786212,6.41312 2.287474,-1.23212 27.293188,-19.19438 43.968808,-31.58394 12.28431,-9.12693 14.24486,-10.85874 14.24474,-12.58273 -8e-5,-1.09953 -1.03344,-11.11095 -2.29635,-22.2476 -3.60157,-31.75956 -3.67342,-32.60282 -2.94199,-34.52663 0.64658,-1.70064 4.5725,-4.64064 8.72075,-6.53072 2.39988,-1.09346 2.46235,-1.01433 11.58348,14.67288 l 6.89738,11.86263 -0.54086,33.13395 c -0.29748,18.22368 -0.76764,33.36343 -1.04482,33.6439 -0.88089,0.89136 -72.46531,38.11279 -73.248431,38.08665 -0.412469,-0.0138 -15.14758,-8.36615 -32.744692,-18.56087 z"
     id="path42" />
  <path
     style="fill:#ffff00;stroke-width:0.749943"
     d="m 126.94476,122.84722 c -4.83721,-2.09231 -8.63243,-4.06714 -8.43381,-4.38851 0.19862,-0.32136 8.37476,-5.29308 18.16922,-11.04827 29.47555,-17.319724 28.23869,-16.65621 28.89376,-15.500006 0.32255,0.569312 0.49129,5.011098 0.37497,9.870636 l -0.21149,8.83553 -13.43846,8.06188 c -7.39115,4.43404 -14.14064,8.04188 -14.99886,8.01741 -0.85822,-0.0245 -5.51812,-1.75636 -10.35533,-3.84867 z"
     id="path43" />
</svg>
