<?xml version="1.0" encoding="UTF-8" standalone="no"?>
<!-- Uploaded to: SVG Repo, www.svgrepo.com, Generator: SVG Repo Mixer Tools -->

<svg
   fill="#000000"
   height="800px"
   width="800px"
   version="1.1"
   id="Capa_1"
   viewBox="0 0 490.05 490.05"
   xml:space="preserve"
   sodipodi:docname="Unsupported.svg"
   inkscape:version="1.3.2 (091e20e, 2023-11-25)"
   xmlns:inkscape="http://www.inkscape.org/namespaces/inkscape"
   xmlns:sodipodi="http://sodipodi.sourceforge.net/DTD/sodipodi-0.dtd"
   xmlns="http://www.w3.org/2000/svg"
   xmlns:svg="http://www.w3.org/2000/svg"><defs
   id="defs2" /><sodipodi:namedview
   id="namedview2"
   pagecolor="#ffffff"
   bordercolor="#000000"
   borderopacity="0.25"
   inkscape:showpageshadow="2"
   inkscape:pageopacity="0.0"
   inkscape:pagecheckerboard="0"
   inkscape:deskcolor="#d1d1d1"
   inkscape:zoom="0.51277185"
   inkscape:cx="291.55267"
   inkscape:cy="515.82395"
   inkscape:window-width="1312"
   inkscape:window-height="916"
   inkscape:window-x="0"
   inkscape:window-y="38"
   inkscape:window-maximized="0"
   inkscape:current-layer="Capa_1" />

<path
   style="fill:#999999;stroke-width:2.07648"
   d="M 225.18937,487.534 C 127.97194,480.59564 42.481135,412.39046 12.683875,317.99561 -14.500295,231.87873 7.9223553,139.12278 71.515465,74.626539 119.17911,26.285993 177.48451,1.8189501 245.01725,1.8189501 c 67.53276,0 125.83813,24.4670429 173.50179,72.8075889 111.32532,112.906331 87.00665,297.746601 -50.00749,380.094521 -42.1076,25.3074 -91.15336,36.5362 -143.32218,32.81294 z m 70.70062,-220.76749 82.00025,-82.01997 -22.31055,-22.31055 -22.31056,-22.31055 -60.21041,60.18356 -60.21041,60.18356 -26.5123,-26.45345 c -14.58177,-14.54941 -27.41777,-26.45347 -28.52447,-26.45347 -1.10668,0 -11.61066,9.56584 -23.34217,21.25744 l -21.33002,21.25743 49.31086,49.34299 c 27.12098,27.13864 49.78982,49.343 50.37518,49.343 0.58538,0 37.96444,-36.909 83.0646,-82.01999 z"
   id="path2" /></svg>
