<?xml version="1.0" encoding="UTF-8" standalone="no"?>
<svg
   viewBox="0 0 334.8916 333.98901"
   version="1.1"
   id="svg6"
   sodipodi:docname="HighRisk.svg"
   inkscape:version="1.3.2 (091e20e, 2023-11-25)"
   xmlns:inkscape="http://www.inkscape.org/namespaces/inkscape"
   xmlns:sodipodi="http://sodipodi.sourceforge.net/DTD/sodipodi-0.dtd"
   xmlns:xlink="http://www.w3.org/1999/xlink"
   xmlns="http://www.w3.org/2000/svg"
   xmlns:svg="http://www.w3.org/2000/svg">
  <defs
     id="defs6" />
  <sodipodi:namedview
     id="namedview6"
     pagecolor="#ffffff"
     bordercolor="#000000"
     borderopacity="0.25"
     inkscape:showpageshadow="2"
     inkscape:pageopacity="0.0"
     inkscape:pagecheckerboard="0"
     inkscape:deskcolor="#d1d1d1"
     inkscape:zoom="1.3334346"
     inkscape:cx="189.73559"
     inkscape:cy="212.60885"
     inkscape:window-width="1512"
     inkscape:window-height="916"
     inkscape:window-x="0"
     inkscape:window-y="38"
     inkscape:window-maximized="0"
     inkscape:current-layer="svg6" />
  <g
     transform="translate(-169.84 -290.15)"
     id="g6">
    <g
       id="a">
      <path
         id="d"
         d="m284.16 408.85 23.844 10.136 29.159-17.7v-22.987l-53.003 30.55z" />
      <use
         transform="matrix(-1 0 0 1 674.33 -.073306)"
         width="351.66501"
         height="990"
         xlink:href="#d"
         id="use1" />
    </g>
    <g
       id="b"
       transform="translate(0,-1.4877)">
      <path
         id="c"
         d="m306.46 497.35 14.019-8.0939 16.69 28.909v67.782l-75.808 39.674-76.254-44.025 70.207 18.32 58.461-43.397-7.3156-59.168z" />
      <use
         transform="matrix(-1 0 0 1 674.33 .0057556)"
         width="334.58145"
         height="332.21567"
         xlink:href="#c"
         id="use2" />
    </g>
    <use
       transform="matrix(-.5 -.86603 .86603 -.5 94.899 1003.9)"
       width="334.58145"
       height="332.21567"
       xlink:href="#b"
       id="use3" />
    <use
       transform="matrix(-.5 .86603 -.86603 -.5 916.85 420.05)"
       width="334.58145"
       height="332.21567"
       xlink:href="#b"
       id="use4" />
    <use
       transform="matrix(-.5 .86603 -.86603 -.5 915.34 419.18)"
       width="334.58145"
       height="332.21567"
       xlink:href="#a"
       id="use5" />
    <use
       transform="matrix(-.5 -.86603 .86603 -.5 95.986 1003.3)"
       width="334.58145"
       height="332.21567"
       xlink:href="#a"
       id="use6" />
  </g>
  <path
     style="fill:#ff0000;stroke-width:0.749943"
     d="m 55.734021,312.80552 c -19.667466,-11.37358 -35.667688,-20.77057 -35.55605,-20.8822 0.111639,-0.11164 14.347092,3.48443 31.634342,7.99128 17.28725,4.50684 32.000117,8.30511 32.695261,8.44061 0.971976,0.18945 31.055756,-21.52234 58.888416,-42.50041 0.81684,-0.61567 0.38827,-5.65094 -2.39365,-28.12286 -1.86375,-15.05511 -3.47282,-28.35041 -3.5757,-29.54511 -0.17033,-1.97786 0.34967,-2.49484 5.81248,-5.77876 3.29975,-1.98361 6.34354,-3.62155 6.76399,-3.63987 0.42045,-0.0183 4.38918,6.24515 8.81942,13.91881 l 8.05497,13.95211 -0.19507,33.78917 -0.19508,33.78918 -26.99795,14.15294 c -14.84887,7.78413 -31.72259,16.61926 -37.49715,19.63364 l -10.499201,5.48068 z"
     id="path6" />
  <path
     style="fill:#ff0000;stroke-width:0.749943"
     d="m 112.31585,247.1649 c -13.708052,-7.92485 -25.126269,-14.61136 -25.373819,-14.85891 -0.373674,-0.37368 5.43455,-4.00307 16.254239,-10.15682 1.88546,-1.07236 2.43763,-0.84494 15.74881,6.48633 7.58716,4.17872 14.22803,7.87745 14.75749,8.21941 0.60018,0.38765 1.5172,5.09447 2.43541,12.5004 0.81002,6.53326 1.38925,11.9551 1.28718,12.04853 -0.10207,0.0934 -11.40126,-6.31409 -25.10931,-14.23894 z"
     id="path7" />
  <path
     style="fill:#ff0000;stroke-width:0.749943"
     d="m 85.118533,201.26788 c 0,-23.65875 0.191048,-29.56668 0.937429,-28.98887 0.515586,0.39914 5.07149,3.8256 10.124231,7.61436 l 9.186807,6.88864 v 5.48224 c 0,3.01523 -0.22095,10.58684 -0.49099,16.8258 l -0.49099,11.34356 -9.150474,5.27442 c -5.032761,2.90093 -9.367721,5.27442 -9.633244,5.27442 -0.265523,0 -0.482769,-13.37156 -0.482769,-29.71457 z"
     id="path8" />
  <path
     style="fill:#ff0000;stroke-width:0.749943"
     d="M 102.36722,146.56914 C 86.487179,137.33236 73.30072,129.68277 73.063981,129.57008 72.656441,129.37607 75.942245,44.923572 76.374138,44.49168 77.045966,43.819851 146.86326,3.749133 147.04512,3.9309963 147.16754,4.0534187 136.7903,14.870025 123.98457,27.967898 l -23.28313,23.814316 3.85965,33.91685 c 2.12281,18.654266 4.10061,35.042366 4.39512,36.417986 0.5332,2.49051 0.65015,2.54968 27.53342,13.92897 l 26.99795,11.42782 0.21286,8.00687 0.21285,8.00687 -16.33663,-0.0621 -16.33663,-0.0621 z"
     id="path9" />
  <path
     style="fill:#ff0000;stroke-width:0.749943"
     d="m 144.22711,162.92647 -13.26092,-0.22303 -28.73589,-16.70299 -28.735884,-16.70301 0.200325,-8.59047 c 0.386167,-16.55994 2.429576,-68.623128 2.839075,-72.335645 0.485264,-4.399396 -4.279801,-1.201746 37.689524,-25.291975 15.80141,-9.069947 28.87024,-16.3504075 29.04185,-16.1788009 0.17161,0.1716065 -9.44936,10.3065699 -21.37993,22.5221399 -20.8989,21.398138 -21.67858,22.301305 -21.32643,24.704069 0.20104,1.371667 1.85851,15.487093 3.68327,31.367609 1.82477,15.880523 3.54813,30.833823 3.8297,33.229573 0.43527,3.7034 0.8608,4.61704 2.84078,6.09929 1.28085,0.95887 13.29673,6.39263 26.70197,12.07502 13.40523,5.6824 24.59221,10.5305 24.85995,10.77356 0.26775,0.24307 0.61715,3.90105 0.77645,8.12885 l 0.28964,7.68692 -3.02627,-0.16904 c -1.66446,-0.093 -8.9937,-0.2694 -16.28721,-0.39207 z"
     id="path10" />
  <path
     style="fill:#ff0000;stroke-width:0.749943"
     d="m 170.77329,155.1194 0.21372,-7.61823 27.41763,-11.57887 27.41763,-11.57887 4.19696,-36.471833 4.19696,-36.471832 -23.23688,-23.515891 C 198.19902,14.950134 187.88844,4.2219682 188.0669,4.0435065 188.24536,3.8650448 204.231,12.868035 223.59055,24.050152 l 35.19918,20.33112 1.72785,42.359283 c 0.95031,23.297615 1.6119,42.464715 1.47019,42.593565 -0.14171,0.12887 -13.19422,7.69737 -29.00557,16.8189 l -28.74792,16.58462 h -16.83736 -16.83735 z"
     id="path11" />
  <path
     style="fill:#ff0000;stroke-width:0.749943"
     d="m 325.24141,226.69988 c -5.06341,-18.44169 -9.27578,-33.58616 -9.3608,-33.65437 -0.085,-0.0682 -15.16622,-6.61014 -33.51376,-14.53762 -24.65974,-10.65481 -33.65599,-14.22485 -34.49738,-13.68981 -0.62602,0.39808 -11.09371,8.23284 -23.26153,17.41058 -12.16783,9.17773 -22.51702,16.84021 -22.9982,17.02772 -0.6377,0.2485 -10.0388,-4.54026 -13.57728,-6.91603 -0.11178,-0.0751 3.4745,-6.51326 7.96952,-14.30713 l 8.17277,-14.17067 28.77768,-16.6886 c 16.07535,-9.32233 29.34302,-16.55668 30.05846,-16.38974 0.70443,0.16437 17.15631,10.36968 36.55972,22.67846 l 35.27895,22.3796 v 42.19398 c 0,23.20669 -0.0904,42.19398 -0.20096,42.19398 -0.11054,0 -4.34377,-15.08866 -9.40719,-33.53035 z"
     id="path12" />
  <path
     style="fill:#ff0000;stroke-width:0.749943"
     d="m 239.1554,225.4806 -9.07574,-5.18165 -0.48299,-9.46962 c -0.26565,-5.2083 -0.46991,-12.84437 -0.45391,-16.96906 l 0.0291,-7.49943 9.40789,-6.99624 c 5.17434,-3.84794 9.55106,-6.85307 9.72605,-6.67808 0.175,0.17499 0.22979,13.29112 0.12177,29.14695 l -0.1964,28.82878 z"
     id="path13" />
  <path
     style="fill:#ff0000;stroke-width:0.749943"
     d="m 205.48439,313.8157 -37.49715,-19.70622 -0.19528,-33.53564 -0.19527,-33.53564 8.06967,-14.12632 c 4.43833,-7.76947 8.3775,-14.13771 8.75371,-14.15164 0.49656,-0.0184 10.40993,5.40765 13.02278,7.12797 0.11431,0.0753 -1.45961,13.42786 -3.4976,29.67243 -2.03798,16.24458 -3.45654,29.70627 -3.15233,29.91488 0.3042,0.2086 13.49741,9.99576 29.31823,21.74925 15.82083,11.75348 29.29581,21.28006 29.94442,21.17018 0.6486,-0.10989 15.33543,-3.89369 32.6374,-8.40846 17.30198,-4.51478 31.56033,-8.1065 31.68522,-7.9816 0.12489,0.12489 -15.21331,9.11787 -34.0849,19.98437 -18.87159,10.86651 -34.98693,20.15675 -35.81186,20.64497 -1.30995,0.77527 -6.24835,-1.60783 -38.99704,-18.81853 z"
     id="path14" />
  <path
     style="fill:#ff0000;stroke-width:0.749943"
     d="m 196.86089,261.62888 c 4.6e-4,-0.15055 0.67503,-5.50459 1.49904,-11.89785 0.82401,-6.39327 1.49858,-11.83718 1.49904,-12.09759 4.7e-4,-0.26041 6.61474,-4.09378 14.69838,-8.5186 10.98032,-6.0104 15.0273,-7.8822 16.0014,-7.40093 4.23012,2.08996 17.27429,9.71873 17.28484,10.10889 0.007,0.25596 -10.70223,6.64333 -23.79811,14.19415 -13.09588,7.55082 -24.57001,14.21407 -25.49806,14.80721 -0.92806,0.59315 -1.687,0.95528 -1.68653,0.80472 z"
     id="path15" />
  <path
     style="fill:#ff0000;stroke-width:0.749943"
     d="m 182.04867,119.48456 -14.4364,-8.72674 v -10.7573 c 0,-5.916514 0.18411,-10.7573 0.40913,-10.7573 0.71837,0 50.57952,28.85612 50.58333,29.27407 0.003,0.31023 -17.67071,8.10617 -21.36971,9.42635 -0.41247,0.14721 -7.24633,-3.65937 -15.18635,-8.45908 z"
     id="path16" />
  <path
     style="fill:#ff0000;stroke-width:0.749943"
     d="m 126.59203,123.53238 c -5.85614,-2.50875 -10.49355,-4.81051 -10.30534,-5.11503 0.28863,-0.46702 48.19153,-28.314187 49.97054,-29.049139 0.3328,-0.13749 0.60509,4.642039 0.60509,10.621176 v 10.871163 l -14.26917,8.68985 c -7.84805,4.77942 -14.51317,8.65689 -14.81138,8.61659 -0.29821,-0.0403 -5.33359,-2.12587 -11.18974,-4.63461 z"
     id="path17" />
  <path
     style="fill:#ff0000;stroke-width:0.749943"
     d="M 0.42332581,217.80833 0.37497151,175.7614 35.772159,153.34001 c 19.468452,-12.33176 35.934944,-22.42138 36.592203,-22.42138 0.657259,0 14.037984,7.41238 29.734938,16.47196 l 28.53992,16.47196 7.98732,13.88881 c 4.39302,7.63884 7.98732,14.08967 7.98732,14.33518 0,0.60084 -11.74658,7.3983 -12.78488,7.3983 -0.45115,0 -11.1135,-7.78177 -23.69412,-17.29282 -12.580629,-9.51106 -23.271554,-17.42479 -23.757615,-17.58607 -0.486053,-0.16128 -15.868873,6.21071 -34.184035,14.15997 l -33.300296,14.45321 -9.2106171,33.31806 -9.21061671,33.31807 z"
     id="path18" />
</svg>
